<svg xmlns="http://www.w3.org/2000/svg" xmlns:xlink="http://www.w3.org/1999/xlink" viewBox="0 0 446.4 149.4"><defs><path id="a" d="M3.2 3.5h440.3v142.1H3.2z"/></defs><clipPath id="b"><use xlink:href="#a" overflow="visible"/></clipPath><path d="M89 46.2v-1.3c3.2 0 5.4-.3 5.4-3.4V8.8c-.2-2.6-2.5-2.6-4.8-2.8V4.7H100l15.9 34 15-34h9.5V6c-3.1.2-4.4.6-4.4 3.9v31.7c0 3.1 1.6 3.4 4.4 3.4v1.3h-15.6V45c4.3-.3 5-.7 5.1-3.4V10h-.1L114 46.2h-1L96.1 10.4H96v31.1c0 2.5 2.2 3.4 5.5 3.4v1.3H89zm70.9-17.4h13l-6.8-17-6.2 17zm-10.7 17.4v-1.3c1.7-.1 3.2-1.3 3.8-2.9l12.3-32-1.1-1.8c2-1.1 3.4-2.9 4.9-4.7l14.1 35.8c1.3 3.4 2 5.1 5.3 5.5v1.3h-15.7v-1.3c1.8 0 5.1 0 5.1-2.4 0-1.7-3.4-9.4-4.1-12.1h-14.4c-.6 2.2-4.1 10.3-4.1 11.9 0 2.3 3.2 2.3 4.9 2.6v1.3h-11zm47 0v-1.3c3.3 0 5.5-.3 5.5-3.4V9.3c0-3.1-2.2-3.4-5.5-3.4V4.7h17.1V6c-3.4 0-5.6.3-5.6 3.4v32.2c0 3.1 2.2 3.4 5.6 3.4v1.3h-17.1zM224 33.6h1.2c.8 6.4 4 12.1 11.5 12.1 8 0 9.7-5.7 9.7-8.7 0-6.1-5.5-6.8-10-8.5-6.9-2.3-11.1-4.4-11.1-12.3 0-7.3 5.8-12.1 12.9-12.1 3.4 0 7.2 1.1 9.7 3.4l1.8-1.6h.8v12.3h-1.1c-.8-3-1.7-7.3-3.8-9.6-1.7-2-3.9-3.3-6.6-3.3-5.7 0-8.8 3.8-8.8 9.3 0 5.2 4 6.5 8.2 7.8 6.6 2 13.3 4.7 13.3 12.7 0 8.5-6.6 11.8-14.3 11.8-3.7 0-7.2-1.1-10.3-3.1l-2.3 2.2h-.8V33.6zm58.5-28.2c-7.2 0-14.7 6.4-14.7 21 0 10.4 5 19.4 13.9 19.4 10.3 0 15-11 15-19.9.1-15-8.9-20.5-14.2-20.5m20.8 20.5c0 6.9-4 21.1-21.5 21.1-16.1 0-20.4-13.5-20.4-20.9 0-18.1 14.7-22 20.7-22 10 0 21.2 6.8 21.2 21.8M319 11.2v30.4c0 2 1.5 3.2 5.5 3.4v1.3h-12.4V45c2.9-.3 5-.3 5.2-3.4 0 0 0-.1.1-.2v-32c-1.6-1.7-3.1-3.4-5.2-3.5V4.7h9L351 37.3V9.8c0-3.1-1.6-3.5-5.3-3.8V4.7H358V6c-4.1.7-5.5 1.8-5.5 3.8v36.9h-.9L319 11.2zM13.7 101.6c0 3.1 2 3.7 4.9 3.7 6.7 0 10.2-3.4 10.2-10 0-8.8-6-9.7-12.6-9.7h-2.5v16zm0-17.3h2.8c5.4 0 10.1-2.6 10.1-9.3 0-3.7-1.6-7-5.2-8.3-2.1-.8-5.4-.8-7.8-.8v18.4zM3.2 105c2-.1 4.4-.1 4.4-2.6V68.9c0-3.1-2-2.5-4.4-2.9v-1.3c4.3-.1 8.8-.1 13.3-.1 4-.1 7.9.1 11.6 1.9 2.9 1.4 4.6 4.7 4.6 7.9 0 4.9-2.8 8.1-7.4 9.4v.2c5.8.7 10.1 5 10.1 10.9 0 4.1-1.6 6.9-5.8 9.3-3.4 2-8.5 2.3-12.3 2.3-4.7 0-9.6-.2-14.1-.2V105zm44.2 1.3V105c3.3 0 5.5-.3 5.5-3.4V69.4c0-3.1-2.2-3.4-5.5-3.4v-1.3h17.1V66c-3.4 0-5.6.3-5.6 3.4v32.2c0 3.1 2.2 3.4 5.6 3.4v1.3H47.4zm48.4-40.8c-7.2 0-14.7 6.4-14.7 21 0 10.4 5.1 19.4 13.9 19.4 10.3 0 15-11 15-19.9.1-15-8.9-20.5-14.2-20.5M116.5 86c0 6.9-4 21.1-21.5 21.1-16.1 0-20.4-13.5-20.4-20.9 0-18.1 14.7-22 20.7-22 10.1 0 21.2 6.8 21.2 21.8m10.1 20.3V105c3.3 0 4.7-.3 4.7-3.4V69.4c0-3.1-2.2-3.4-4.6-3.4v-1.3h16.4V66c-4.1 0-5.7 1-5.7 4v30.2c0 4.6 1.5 4.7 7.3 4.7 2.5 0 5 0 7.5-.4 3.2-.5 4.9-2.4 6.7-4.9 1.6-2.2 3-4.4 4.3-6.8h1.3l-3.4 13.4h-34.5zM195 65.5c-7.2 0-14.7 6.4-14.7 21 0 10.4 5.1 19.4 13.9 19.4 10.3 0 15-11 15-19.9.1-15-8.9-20.5-14.2-20.5M215.7 86c0 6.9-4 21.1-21.5 21.1-16.1 0-20.4-13.5-20.4-20.9 0-18.1 14.7-22 20.7-22 10.1 0 21.2 6.8 21.2 21.8m47.9-8.1h-1.3c-2.4-6.5-6.3-12.4-14-12.4-6.1 0-16 5.8-16 20.9 0 15.3 8.4 19.4 14.4 19.4 6.3 0 10.1-3.5 10.1-9.6v-4.4c0-2.8-.9-3.4-5.2-3.7v-1.3h15.6v1.3c-3.7.3-4.4 1.1-4.4 3.3V102c-5.1 2.9-10.6 5.1-16.6 5.1-9.9 0-20.7-6.3-20.7-20.7 0-15 10.9-22.2 21.3-22.2 4.8 0 9.4 1.1 13.4 3.8l2-2.6h.9l.5 12.5zm13.5 28.4V105c3.3 0 5.5-.3 5.5-3.4V69.4c0-3.1-2.2-3.4-5.5-3.4v-1.3h17.1V66c-3.4 0-5.6.3-5.6 3.4v32.2c0 3.1 2.2 3.4 5.6 3.4v1.3h-17.1zm48.3-40.8c-7.8 0-14.7 7.1-14.7 21 0 8.3 4 19.4 14 19.4 10.3 0 15-11 15-19.9.1-15.3-9-20.5-14.3-20.5m16.9 41.3c-.4 5.4-5.2 9.9-11.1 9.9-3.4 0-6.2-1.3-8.6-2.5-2.3-1.3-4.3-2.5-5.8-2.5-1.6 0-1.9 1.1-2 2.3-.2 1.1-.3 2.3-1.5 2.3-1.3 0-1.9-.8-1.9-2 0-1.3 1-2.5 2.1-3l9.6-4.1v-.2c-11.3-.6-18.7-9.7-18.7-20.7 0-16.3 12.7-22 20.7-22 8.8 0 21.2 5.7 21.2 21.8 0 12.3-8.5 20.9-20.7 21.1l-7 2.9.1.1c1.1-.2 2.5-.5 3.7-.5 3.9 0 7.3 1.7 11.1 1.7 3.4 0 6.3-1.3 7.6-4.6h1.2zm14.2-42h15.7V66c-4.5-.1-5.3 1.4-5.3 4.6v24.1c0 4.3 1.6 11.1 11.5 11.1 10 0 12.3-6.3 12.3-13.3V70.7c0-4.1-2.1-4.4-6.2-4.6v-1.3h13V66c-3.2 0-5.1 1.3-5.1 4.6v21.8c0 8.4-3.2 14.6-15.8 14.6-12.2 0-15.8-6.5-15.8-13.9V70.7c0-4-.4-4.4-4.3-4.6v-1.3zm51.9 41.5V105c2.9 0 4.7-.3 4.7-3.4V69.4c0-3.1-2.2-3.4-4.9-3.4v-1.3h30.7l2.9 9.7-1.3.3c-.8-1.3-1.7-2.6-2.7-3.8-3.1-4-6.1-4.9-9.6-4.9h-9.1v18.5h3.3c6.1-.1 8.5-.8 9.9-7.6h1v17.3h-1c-.6-6.7-3.2-8.1-9.1-8.1h-4.1V102c0 2.7 1.9 2.9 4.1 2.9h6.7c2.9 0 4.6-.5 7-2.9 2.1-2 3.9-4.4 5.5-6.9l1 .3-2.4 10.8h-32.6zM76 136.2c-.2-.6-.5-1.5-1-2.8l-.9-2.6c-.5 1.4-1.2 3.2-1.9 5.4H76zm5.1 4.5c0 .1-.1.2-.3.2h-.3l-2.4-.1-2.4.1h-.3c-.3 0-.4-.1-.4-.2s.2-.2.5-.2c1.1 0 1.7-.1 1.7-.3v-.1l-.2-.5-.1-.3c-.1-.4-.4-1.3-.8-2.6h-4c-.8 2-1.1 3.2-1.1 3.5 0 .2.1.3.2.3 0 0 .4 0 .9.1.4 0 .5.1.5.2s-.2.2-.5.2c-.6 0-1.3 0-2-.1h-.6c-.2 0-.4 0-.6.1h-.2c-.2 0-.3-.1-.3-.2s.2-.2.6-.2c.4 0 .7-.1.9-.2.2-.1.3-.3.4-.6 1.6-4.6 2.9-8.4 3.9-11.2 0-.1.1-.3.2-.5l.1-.3c0-.1.1-.2.1-.2s.1 0 .1.1c.2.5.5 1.5 1.1 3.1.5 1.2 1.6 4.3 3.4 9.2.1.3.2.5.4.5.2.1.5.1 1 .1.3-.1.5 0 .5.1m10.9 0c0 .1-.1.2-.2.2h-3.5c-.2 0-.3 0-.3-.2 0-.1.1-.1.2-.1h.5c.4 0 .5-.1.5-.2v-11.8c0-.1-.1-.2-.3-.2h-.7c-.2 0-.3-.1-.3-.2s.2-.1.5-.2c.6 0 1.2-.2 1.7-.4l.4-.2.1-.1c.1.4.1.9.1 1.7v11.2c0 .1.1.1.1.1h.7c.4.2.5.3.5.4m10.9-11.7c0 .6-.3.8-.8.8-.2 0-.4-.1-.6-.2-.2-.2-.2-.3-.2-.6 0-.6.3-.9.8-.9s.8.3.8.9m1.4 11.7c0 .1-.1.2-.3.2h-3.4c-.1.1-.1.1-.2.1s-.2 0-.2-.1.1-.2.4-.2c.5 0 .7 0 .8-.1 0-.1.1-.3.1-.8v-6.3c0-.1-.1-.1-.2-.1h-.7c-.1 0-.2 0-.2-.1s.1-.1.3-.1c.8 0 1.5-.2 2.1-.6l.2-.1c.1.2.1.5.1 1v6.9c0 .1.1.1.2.2.2.1.5.1.8.1.1-.2.2-.1.2 0m21 0c0 .1-.1.1-.3.1h-3.4c-.2 0-.2 0-.2-.1s.1-.1.2-.1h.7c.2 0 .3-.1.3-.1V135c0-.7-.1-1.3-.3-1.6-.2-.3-.5-.5-1-.5-.3 0-.6.1-.9.3-.3.2-.5.4-.6.7 0 .2-.1.9-.1 2.1v4.3c0 .2.1.2.3.2h.5c.2 0 .2 0 .2.1s-.1.1-.3.1H117c-.2 0-.2-.1-.2-.1 0-.1 0-.1.1-.1h.8c.2 0 .3-.1.3-.2v-5.5c0-.7-.1-1.2-.3-1.5-.2-.3-.5-.4-1-.4s-.8.1-1.2.4c-.3.3-.5.7-.5 1.1v5.3c0 .4 0 .6.1.7.1.1.2.1.5.1h.3c.1 0 .2.1.2.2s-.1.1-.2.1h.1-3.3c-.2 0-.3-.1-.3-.1 0-.1.1-.1.2-.1.5 0 .8 0 .8-.1.1 0 .1-.1.1-.2v-4.9c0-.9 0-1.5-.1-1.7 0-.2-.2-.2-.5-.2h-.7c-.2 0-.2 0-.2-.1s0-.1.1-.1.3 0 .6-.1c.3 0 .7-.1 1.1-.2.4-.1.7-.3.7-.4.1-.1.2-.2.3-.2.1 0 .1.1.1.2v1.1c.5-.8 1.3-1.2 2.3-1.2 1.1 0 1.8.4 2 1.3.5-.8 1.3-1.3 2.4-1.3.9 0 1.6.3 1.9 1 .2.4.3.9.3 1.8v4.7c0 .4 0 .7.1.7 0 0 .2.1.6.1h.3c.4-.2.5-.2.5-.1m13.5-5.8c-.1-1.5-.6-2.3-1.6-2.3s-1.7.8-1.9 2.3h3.5zm1.6 3.9c0 .1-.1.4-.3.7-.2.3-.4.6-.6.8-.5.6-1.3.8-2.2.8-1.1 0-2.1-.4-2.8-1.2-.8-.8-1.1-1.8-1.1-3 0-1.3.4-2.3 1.1-3.2.7-.8 1.6-1.3 2.7-1.3.9 0 1.6.3 2.2.8.6.5.9 1.2 1 2-.4.1-.9.1-1.6.1h-1.3c-.1 0-.8 0-2.3.1-.1.4-.1.8-.1 1.2 0 1.3.2 2.2.7 2.9.5.7 1.2 1 2 1 .5 0 .9-.1 1.2-.3.3-.2.6-.7 1-1.3.1-.1.1-.2.2-.2.2-.1.2 0 .2.1m17.2 1.9c0 .1-.1.1-.3.1h-3.4c-.2 0-.2 0-.2-.1s0-.1.1-.1h.7c.2 0 .4 0 .4-.1s.1-.3.1-.6v-3.6c0-1.4-.1-2.2-.1-2.4-.2-.6-.6-.8-1.3-.8-.6 0-1.2.3-1.6.8-.1.2-.2.4-.2.7v5.9c0 .1.1.2.4.2h.6c.1 0 .2 0 .2.1s-.1.1-.2.1h-3.6c-.2 0-.3 0-.3-.1s.1-.1.3-.1h.5c.2 0 .3 0 .3-.1l.1-.3v-6.5c0-.2-.2-.2-.5-.2h-.6c-.3 0-.4 0-.4-.1s.1-.2.4-.2c.4 0 .8-.1 1.2-.2.4-.1.7-.3.9-.4.1-.1.2-.2.3-.2.1 0 .1.1.1.4v.9c.7-.8 1.5-1.3 2.5-1.3.9 0 1.6.3 2 1 .2.4.3 1.1.3 2.1v4.3c0 .4 0 .6.1.7.1.1.3.1.5.1h.3c.3-.1.4-.1.4 0m13.3-1c0 .1-.2.3-.5.6-.5.5-1.2.7-1.9.7s-1.2-.2-1.6-.5c-.2-.2-.3-.8-.3-1.8v-5.6c0-.1-.1-.2-.2-.2h-.7c-.3 0-.4 0-.4-.1s.1-.1.2-.1c1-.1 1.7-.6 2.3-1.5.1-.1.2-.2.3-.2.1 0 .1 0 .1.1v.4c0 .5 0 .9.1 1h.6c.7 0 1.1 0 1.4-.1h.1c.1 0 .1.1.1.2 0 .2-.5.3-1.5.3h-.8v3.5c0 1.8 0 2.9.1 3.3.1.4.4.7.9.7.4 0 .9-.2 1.4-.7 0-.1.1-.1.2-.1s.1 0 .1.1m12-1.7v-1.4c-.9.2-1.6.5-2 .8-.4.3-.6.8-.6 1.4 0 .4.1.7.3 1 .2.3.5.4.9.4.5 0 1-.3 1.3-.9 0-.2.1-.6.1-1.3m3.3 2c0 .2-.2.4-.7.7-.4.2-.9.3-1.3.3-.9 0-1.3-.4-1.4-1.3-.5.9-1.2 1.4-2.2 1.4-.5 0-1-.2-1.3-.5-.4-.3-.5-.7-.5-1.2 0-1 .6-1.8 1.8-2.5.4-.2 1.2-.4 2.2-.6v-.5c0-1.1-.1-1.8-.2-2.2-.2-.6-.7-1-1.4-1-.4 0-.8.1-1.1.4-.3.2-.4.5-.4.9 0 .1.1.2.2.2.2 0 .3.1.4.2.1.2.2.3.2.5 0 .6-.3.8-.8.8-.3 0-.5-.1-.7-.3-.2-.2-.3-.4-.3-.7 0-.6.2-1.1.7-1.5.5-.5 1.2-.7 2.1-.7 1.4 0 2.2.4 2.5 1.1.1.3.2.9.2 1.7v4.5c.1.5.2.7.5.7s.6-.1.9-.4c.1-.1.2-.2.3-.2.3.1.3.1.3.2m12.6-.3c0 .1-.2.3-.5.6-.5.5-1.2.7-1.9.7s-1.2-.2-1.6-.5c-.2-.2-.3-.8-.3-1.8v-5.6c0-.1-.1-.2-.2-.2h-.7c-.3 0-.4 0-.4-.1s.1-.1.2-.1c1-.1 1.7-.6 2.3-1.5.1-.1.2-.2.3-.2.1 0 .1 0 .1.1v.4c0 .5 0 .9.1 1h.6c.7 0 1.2 0 1.4-.1h.1c.1 0 .2.1.2.2 0 .2-.5.3-1.5.3h-.8v3.5c0 1.8 0 2.9.1 3.3.1.4.4.7.9.7.4 0 .9-.2 1.4-.7.1-.1.1-.1.2-.1v.1m10.4-10.7c0 .6-.3.8-.8.8-.2 0-.4-.1-.6-.2-.2-.2-.2-.3-.2-.6 0-.6.3-.9.8-.9s.8.3.8.9m1.4 11.7c0 .1-.1.2-.3.2h-3.4c-.1.1-.1.1-.2.1s-.2 0-.2-.1.1-.2.4-.2c.5 0 .7 0 .8-.1 0-.1.1-.3.1-.8v-6.3c0-.1-.1-.1-.2-.1h-.7c-.1 0-.2 0-.2-.1s.1-.1.3-.1c.8 0 1.5-.2 2.1-.6l.2-.1c.1.2.1.5.1 1v6.9c0 .1.1.1.2.2.2.1.5.1.8.1.1-.2.2-.1.2 0m14.5-4c0-1.4-.2-2.5-.6-3.2-.3-.6-.8-.8-1.6-.8-.7 0-1.3.4-1.6 1.1-.4.7-.6 1.7-.6 3s.2 2.3.6 3c.4.7 1 1.1 1.8 1.1.6 0 1-.2 1.3-.7.4-.9.7-2 .7-3.5m1.7 0c0 1.2-.4 2.2-1.1 3.1-.7.8-1.7 1.2-2.8 1.2-1.1 0-2.1-.4-2.9-1.2-.8-.8-1.2-1.8-1.2-3.1s.4-2.3 1.1-3.1c.7-.8 1.7-1.2 2.8-1.2 1.1 0 2.1.4 2.8 1.3.9.8 1.3 1.8 1.3 3m17.2 4c0 .1-.1.1-.3.1h-3.4c-.2 0-.2 0-.2-.1s0-.1.1-.1h.7c.2 0 .4 0 .4-.1s.1-.3.1-.6v-3.6c0-1.4 0-2.2-.2-2.4-.2-.6-.6-.8-1.3-.8-.6 0-1.2.3-1.6.8-.1.2-.2.4-.2.7v5.9c0 .1.1.2.4.2h.6c.1 0 .2 0 .2.1s-.1.1-.2.1h-3.4c-.2 0-.3 0-.3-.1s.1-.1.3-.1h.5c.2 0 .3 0 .3-.1l.1-.3v-6.5c0-.2-.2-.2-.5-.2h-.6c-.2 0-.4 0-.4-.1s.1-.2.4-.2c.4 0 .8-.1 1.2-.2.4-.1.7-.3.9-.4.1-.1.2-.2.3-.2.1 0 .1.1.1.4v.9c.7-.8 1.5-1.3 2.5-1.3.9 0 1.6.3 2 1 .2.4.3 1.1.3 2.1v4.3c0 .4 0 .6.1.7.1.1.3.1.5.1h.3c.3-.1.3-.1.3 0m24.5-5.4c0-1.8-.5-2.7-1.5-2.7s-1.5.8-1.5 2.5c0 1.9.5 2.9 1.6 2.9.9 0 1.4-.9 1.4-2.7m1.4 7.3c0-1-.6-1.6-1.8-1.6-.4 0-.9.1-1.6.2-.7.1-1.2.2-1.5.2-.6.3-1 .9-1 1.8 0 .6.2 1.2.7 1.5.5.4 1.1.6 1.8.6 1 0 1.8-.3 2.4-.8.7-.5 1-1.2 1-1.9m2.1-9.1c0 .6-.3.9-.8.9-.2 0-.3-.1-.5-.2s-.2-.3-.2-.4c0 0 0-.1.1-.2 0-.1.1-.2.1-.3 0-.2-.1-.2-.3-.2-.1 0-.3.1-.4.2-.1.2-.2.3-.2.5 0 0 0 .3.1.6.1.4.1.7.1.9 0 .9-.3 1.6-.9 2.1-.6.6-1.3.9-2.2.9-.2 0-.6-.1-1.2-.3-.2-.1-.3-.1-.3-.1-.3 0-.5.1-.7.3-.2.2-.3.4-.3.7 0 .7.4 1 1.2 1 .3 0 .8-.1 1.4-.2.5-.1 1-.1 1.4-.1.8 0 1.4.2 1.8.6.4.4.6 1 .6 1.7 0 1.1-.5 2-1.4 2.7-.9.7-2.1 1.1-3.5 1.1-1 0-1.9-.2-2.5-.6-.6-.4-.9-1-.9-1.7s.3-1.3.8-1.6c.3-.2.7-.3 1.3-.5-.9-.4-1.3-.9-1.3-1.6 0-.9.6-1.5 1.7-1.9-.8-.6-1.1-1.4-1.1-2.3 0-.9.3-1.6.9-2.2.6-.5 1.3-.8 2.3-.8.5 0 .9.1 1.3.2.3.1.7.4 1.1.8.4-.6.9-.9 1.5-.9.6-.1 1 .2 1 .9m13.9-5.2l-1.7 1.8c-.8.8-1.2 1.2-1.3 1.2-.1 0-.1 0-.1-.1v-.1c.1-.3.3-.8.6-1.5l.6-1.3h1.9zm-.9 6.6c-.1-1.5-.6-2.3-1.6-2.3s-1.7.8-1.9 2.3h3.5zm1.6 3.9c0 .1-.1.4-.3.7-.2.3-.4.6-.6.8-.5.6-1.3.8-2.2.8-1.1 0-2.1-.4-2.8-1.2-.8-.8-1.1-1.8-1.1-3 0-1.3.4-2.3 1.1-3.2.7-.8 1.6-1.3 2.7-1.3.9 0 1.6.3 2.2.8.6.5.9 1.2 1 2-.4.1-.9.1-1.6.1h-1.3c-.1 0-.8 0-2.3.1-.1.4-.1.8-.1 1.2 0 1.3.2 2.2.7 2.9.5.7 1.2 1 2 1 .5 0 .9-.1 1.2-.3.3-.2.6-.7 1-1.3.1-.1.1-.2.2-.2.2-.1.2 0 .2.1m17.2 1.9c0 .1-.1.1-.3.1h-3.4c-.2 0-.2 0-.2-.1s0-.1.1-.1h.7c.2 0 .4 0 .4-.1s.1-.3.1-.6v-3.6c0-1.4 0-2.2-.2-2.4-.2-.6-.6-.8-1.3-.8-.6 0-1.2.3-1.6.8-.1.2-.2.4-.2.7v5.9c0 .1.1.2.4.2h.6c.1 0 .2 0 .2.1s-.1.1-.2.1h-3.4c-.2 0-.3 0-.3-.1s.1-.1.3-.1h.5c.2 0 .3 0 .3-.1l.1-.3v-6.5c0-.2-.2-.2-.5-.2h-.6c-.3 0-.4 0-.4-.1s.1-.2.4-.2c.4 0 .8-.1 1.2-.2.4-.1.7-.3.9-.4.1-.1.2-.2.3-.2.1 0 .1.1.1.4v.9c.7-.8 1.5-1.3 2.5-1.3.9 0 1.6.3 2 1 .2.4.3 1.1.3 2.1v4.3c0 .4 0 .6.1.7.1.1.3.1.5.1h.3c.3-.1.3-.1.3 0m14.5-12.4l-1.7 1.8c-.8.8-1.2 1.2-1.3 1.2-.1 0-.1 0-.1-.1v-.1c.1-.3.3-.8.6-1.5l.6-1.3h1.9zm-.9 6.6c0-1.5-.6-2.3-1.6-2.3s-1.7.8-1.9 2.3h3.5zm1.7 3.9c0 .1-.1.4-.3.7-.2.3-.4.6-.6.8-.5.6-1.3.8-2.2.8-1.1 0-2.1-.4-2.8-1.2-.8-.8-1.1-1.8-1.1-3 0-1.3.4-2.3 1.1-3.2.7-.8 1.6-1.3 2.7-1.3.9 0 1.6.3 2.2.8.6.5.9 1.2 1 2-.4.1-.9.1-1.6.1h-1.3c-.1 0-.8 0-2.3.1-.1.4-.1.8-.1 1.2 0 1.3.2 2.2.7 2.9.5.7 1.2 1 2 1 .5 0 .9-.1 1.2-.3.3-.2.6-.7 1-1.3 0-.1.1-.2.2-.2.1-.1.2 0 .2.1m14.3-5.1c0 .3-.1.5-.3.7-.2.2-.4.3-.7.3-.2 0-.4-.1-.6-.2-.1-.1-.2-.3-.2-.5s.1-.3.2-.5c.1-.1.2-.2.2-.3 0-.2-.1-.3-.4-.3-.4 0-.7.2-.9.7-.3.5-.4 1.5-.4 2.9v3.7c0 .1.1.2.2.3.1 0 .4.1 1 .1.1 0 .2.1.2.2s-.1.1-.2.1h-3.6c-.2 0-.3 0-.3-.1s.1-.1.2-.1h.3c.4 0 .7 0 .8-.1v-5.9c0-.7-.1-1.1-.3-1.2-.2-.1-.5-.2-1-.2-.1 0-.2 0-.2-.1s.1-.1.2-.1h.9c.5 0 1-.1 1.5-.4l.2-.1.2-.1c.1.3.1.6.1.9v.4c.4-.9 1-1.3 1.7-1.3.4 0 .7.1 1 .4.1.1.2.4.2.8m12.4 4.3v-1.4c-.9.2-1.6.5-2 .8-.4.3-.6.8-.6 1.4 0 .4.1.7.3 1 .2.3.5.4.9.4.5 0 1-.3 1.3-.9 0-.2.1-.6.1-1.3m3.3 2c0 .2-.2.4-.7.7-.4.2-.9.3-1.3.3-.9 0-1.3-.4-1.4-1.3-.5.9-1.2 1.4-2.2 1.4-.5 0-1-.2-1.3-.5-.3-.3-.5-.7-.5-1.2 0-1 .6-1.8 1.9-2.5.4-.2 1.2-.4 2.2-.6v-.5c0-1.1-.1-1.8-.2-2.2-.2-.6-.7-1-1.4-1-.4 0-.8.1-1.1.4-.3.2-.4.5-.4.9 0 .1.1.2.2.2s.3.1.4.2c.1.2.2.3.2.5 0 .6-.3.8-.8.8-.3 0-.5-.1-.7-.3-.2-.2-.3-.4-.3-.7 0-.6.2-1.1.7-1.5.5-.5 1.2-.7 2.1-.7 1.4 0 2.2.4 2.5 1.1.1.3.2.9.2 1.7v4.5c.1.5.2.7.5.7.4 0 .6-.1.9-.4.1-.1.2-.2.3-.2.2.1.2.1.2.2m11.2.7c0 .1-.1.2-.2.2h-3.5c-.2 0-.3 0-.3-.2 0-.1.1-.1.2-.1h.5c.4 0 .5-.1.5-.2v-11.8c0-.1-.1-.2-.3-.2h-.7c-.2 0-.3-.1-.3-.2s.2-.1.5-.2c.6 0 1.2-.2 1.7-.4l.4-.2.2-.1c.1.4.1.9.1 1.7v11.2c0 .1.1.1.1.1h.7c.2.2.4.3.4.4m13.7-5.8c0-1.5-.6-2.3-1.6-2.3s-1.7.8-1.9 2.3h3.5zm1.6 3.9c0 .1-.1.4-.3.7-.2.3-.4.6-.6.8-.5.6-1.3.8-2.2.8-1.1 0-2.1-.4-2.8-1.2-.8-.8-1.1-1.8-1.1-3 0-1.3.4-2.3 1.1-3.2.7-.8 1.6-1.3 2.7-1.3.9 0 1.6.3 2.2.8.6.5.9 1.2 1 2-.4.1-.9.1-1.6.1h-1.3c-.1 0-.8 0-2.3.1-.1.4-.1.8-.1 1.2 0 1.3.2 2.2.7 2.9.5.7 1.2 1 2 1 .5 0 .9-.1 1.2-.3.3-.2.6-.7 1-1.3 0-.1.1-.2.2-.2.2-.1.2 0 .2.1M30.2 26.7c0-1.6-.3-2.8-1-3.6-.6-.8-1.6-1.1-3-1.1-.7 0-1.1.1-1.2.2v9c0 .1.1.1.1.1.2.1.7.2 1.5.2 1.1 0 1.9-.4 2.6-1.1.6-.8 1-2 1-3.7m1.6 0c0 1.7-.6 3.1-1.8 4-.9.7-2.1 1.1-3.5 1.1h-3.9c-.2 0-.3 0-.3-.1s.2-.1.5-.1c.4 0 .6-.1.7-.2 0-.1.1-.3.1-.6v-7.9c0-.5 0-.8-.1-.8-.1-.1-.3-.1-.8-.1-.2 0-.3-.1-.3-.2s.1-.1.3-.1h2.6c1.8 0 3 .1 3.7.4.9.3 1.6.9 2.2 1.7.3.8.6 1.8.6 2.9m8.2.5c0-1.2-.5-1.8-1.3-1.8s-1.3.6-1.5 1.8H40zm1.3 3c0 .1-.1.3-.2.5s-.3.5-.5.6c-.4.4-1 .6-1.7.6-.9 0-1.6-.3-2.2-1-.6-.6-.9-1.4-.9-2.4s.3-1.8.8-2.5c.6-.7 1.3-1 2.1-1 .7 0 1.3.2 1.7.6.5.4.7.9.8 1.6-.3 0-.7.1-1.2.1h-2.8c-.1.3-.1.6-.1.9 0 1 .2 1.7.6 2.3.4.5.9.8 1.6.8.4 0 .7-.1.9-.3.2-.2.5-.5.8-1 0-.1.1-.1.2-.1.1.2.1.3.1.3m8.8-1.6c0-.8-.1-1.4-.4-2-.3-.7-.8-1.1-1.5-1.1-.3 0-.6.1-.9.4-.2.2-.4.5-.4.9v4c0 .1.1.3.2.4.3.4.7.6 1.1.6.5 0 .9-.2 1.2-.6.5-.7.7-1.6.7-2.6m1.3 0c0 1-.3 1.8-.8 2.5-.6.7-1.2 1-2.1 1-.6 0-1.2-.2-1.5-.7v3.8l.1.1h.9c.1 0 .2 0 .2.1s-.1.1-.2.1h-2.9c-.3 0-.4 0-.4-.1s.1-.1.2-.1h.4c.3 0 .4-.1.5-.2v-8.6c0-.3-.1-.4-.4-.4h-.6c-.1 0-.1 0-.1-.1s.1-.1.3-.1c.5 0 1-.1 1.5-.4.1-.1.2-.1.3-.1.1 0 .1 0 .2.1 0 .1 0 .3.1.7.4-.5.9-.8 1.6-.8.9 0 1.5.3 2.1.9.3.5.6 1.3.6 2.3m10.7 2.7c0 .1-.1.1-.3.1-.8 0-1.4.2-2 .5h-.1c-.1 0-.1 0-.1-.1V31c-.4.6-1.1.9-1.9.9-.7 0-1.2-.2-1.5-.6-.1-.2-.2-.3-.2-.5v-4.5c0-.3 0-.5-.1-.6 0-.1-.2-.1-.4-.1h-.2c-.3 0-.4 0-.4-.1s.1-.1.2-.1h1.1c.3 0 .7 0 1-.1v4.1c0 .7 0 1.2.1 1.5.2.4.5.6 1 .6s.9-.2 1.1-.6c.2-.3.3-.8.3-1.5v-3.5c0-.1 0-.2-.1-.3h-.3c-.4 0-.6 0-.6-.1s.1-.1.3-.1h2v5.4c0 .2.1.3.2.3h.8c0 .1.1.2.1.2m5.2-8.7c0 .4-.2.7-.7.7-.2 0-.3-.1-.5-.2 0-.1-.1-.3-.1-.5 0-.5.2-.7.7-.7.4 0 .6.3.6.7m1.1 9.2c0 .1-.1.1-.2.1h-2.6c-.1 0-.1.1-.2.1s-.2 0-.2-.1.1-.2.3-.2c.4 0 .6 0 .6-.1 0 0 .1-.2.1-.6v-4.9s-.1-.1-.2-.1h-.5c-.1 0-.2 0-.2-.1s.1-.1.2-.1c.6 0 1.2-.2 1.7-.5l.1-.1c.1.1.1.4.1.8v5.4c0 .1.1.1.2.1s.4.1.6.1c.2 0 .2.1.2.2m8-1.8c0 .6-.2 1.1-.6 1.5-.4.4-.9.6-1.5.6-.3 0-.7-.1-1.2-.4-.1-.1-.2-.1-.3-.1-.1 0-.2.1-.3.3 0 .1-.1.2-.2.2s-.1 0-.1-.1v-2.1c0-.1 0-.2.1-.2s.1.1.1.2c.1.5.2.8.4 1.1.4.5.9.8 1.6.8.4 0 .6-.1.8-.3.2-.2.3-.5.3-.8 0-.4-.1-.7-.4-.9-.1-.1-.3-.2-.4-.3-.1-.1-.4-.2-1-.4-1.1-.4-1.6-1-1.6-1.9 0-.5.2-1 .6-1.4.4-.4.8-.6 1.4-.6.2 0 .5.1.9.2h.3c.2 0 .3-.1.4-.3 0-.1.1-.1.1-.1.1 0 .1 0 .1.1v.7c0 .2 0 .6.1 1.1 0 .1 0 .1-.1.1s-.1-.1-.2-.4c-.1-.4-.3-.6-.6-.9-.3-.2-.6-.3-.9-.3-.3 0-.6.1-.8.3-.3.3-.4.6-.4.9 0 .5.3.9 1 1.1 1 .4 1.7.7 1.9 1 .4.4.5.8.5 1.3m306.9-.9v.2c-.1.3-.1 1.1-.2 2.4v.2c-1 0-2.2-.1-3.4-.1h-2.8c-.3 0-.4 0-.4-.1s.3-.3.8-.7c1.2-1 2.1-1.8 2.6-2.4.9-1.1 1.3-2.4 1.3-3.8 0-1-.2-1.7-.6-2.2-.3-.4-.8-.6-1.3-.6-.6 0-1 .2-1.3.5-.3.3-.4.5-.4.8 0 .2.1.3.4.3.7 0 1 .3 1 .9 0 .5-.3.8-.9.8-.4 0-.7-.1-.9-.3-.2-.2-.3-.5-.3-.9 0-.7.3-1.3.8-1.7.5-.4 1.2-.7 2-.7s1.5.3 2.1.8c.6.6 1 1.4 1 2.4 0 1.1-.4 2.1-1.1 3-.7.9-1.9 1.9-3.7 3h3.9c.2 0 .4-.1.6-.2.1-.1.3-.4.4-1 .1-.4.2-.6.3-.6.1-.2.1-.2.1 0m9.3-2.7c0-1.5-.2-2.7-.5-3.6-.2-.7-.7-1.1-1.3-1.1-1.2 0-1.8 1.6-1.8 4.9 0 3.4.7 5.2 2 5.2.6 0 1-.5 1.3-1.5.2-.9.3-2.2.3-3.9m1.6.5c0 .9-.1 1.7-.4 2.5-.3.8-.6 1.4-1.1 1.9-.5.5-1.1.8-1.8.8-1 0-1.9-.5-2.5-1.5-.7-1-1-2.3-1-3.8 0-1.8.5-3.2 1.4-4.3.6-.6 1.2-.9 2.1-.9 1 0 1.7.4 2.3 1.3.6 1 1 2.3 1 4m9.6 4.8c0 .1-.1.1-.3.1h-3.6c-.2 0-.4 0-.4-.1s.1-.1.2-.1h.7c.3 0 .5-.1.5-.2V23c0-.1-.1-.1-.2-.1s-.4 0-1 .1h-.2c-.1 0-.2 0-.2-.1s.1-.1.2-.1c.5 0 .9-.2 1.4-.4.5-.2.8-.5 1.1-.8.1-.1.2-.1.2-.1.1 0 .1 0 .1.1V31c0 .4 0 .6.1.6 0 .1.2.1.4.1h.7c.3-.1.3-.1.3 0m10.2-3.1c0-1.8-.6-2.7-1.7-2.7-.5 0-.9.2-1.2.7-.3.4-.4 1-.4 1.8 0 1.1.2 2 .6 2.7.3.4.6.7 1.1.7 1.1 0 1.6-1.1 1.6-3.2m1.5 0c0 .9-.3 1.8-.9 2.4-.6.7-1.3 1-2.1 1-1 0-1.8-.4-2.5-1.2-.6-.8-.9-1.9-.9-3.2 0-1.2.3-2.3.8-3.3s1.2-1.7 2.1-2.2c.7-.4 1.6-.6 2.4-.6.2 0 .3 0 .3.1s-.1.1-.2.1c-.9.1-1.7.4-2.3 1-.9.7-1.4 2-1.6 3.7.5-.5 1.2-.8 1.8-.8.5 0 1.1.1 1.5.4 1.2.5 1.6 1.4 1.6 2.6" clip-path="url(#b)" fill="#424041"/></svg>