<?xml version="1.0" encoding="utf-8"?>
<!-- Generator: Adobe Illustrator 22.1.0, SVG Export Plug-In . SVG Version: 6.00 Build 0)  -->
<svg version="1.1" id="Calque_1" xmlns="http://www.w3.org/2000/svg" xmlns:xlink="http://www.w3.org/1999/xlink" x="0px" y="0px"
	 viewBox="0 0 446.4 149.4" style="enable-background:new 0 0 446.4 149.4;" xml:space="preserve">
<style type="text/css">
	.st0{clip-path:url(#SVGID_2_);fill:#424041;}
</style>
<g>
	<defs>
		<rect id="SVGID_1_" x="3.2" y="3.5" width="440.3" height="142.1"/>
	</defs>
	<clipPath id="SVGID_2_">
		<use xlink:href="#SVGID_1_"  style="overflow:visible;"/>
	</clipPath>
	<path class="st0" d="M89,46.2v-1.3c3.2,0,5.4-0.3,5.4-3.4V8.8c-0.2-2.6-2.5-2.6-4.8-2.8V4.7H100l15.9,34l15-34h9.5v1.3
		c-3.1,0.2-4.4,0.6-4.4,3.9v31.7c0,3.1,1.6,3.4,4.4,3.4v1.3h-15.6v-1.3c4.3-0.3,5-0.7,5.1-3.4V10h-0.1L114,46.2H113L96.1,10.4H96
		v31.1c0,2.5,2.2,3.4,5.5,3.4v1.3H89z"/>
	<path class="st0" d="M159.9,28.8h13l-6.8-17L159.9,28.8z M149.2,46.2v-1.3c1.7-0.1,3.2-1.3,3.8-2.9l12.3-32l-1.1-1.8
		c2-1.1,3.4-2.9,4.9-4.7l14.1,35.8c1.3,3.4,2,5.1,5.3,5.5v1.3h-15.7v-1.3c1.8,0,5.1,0,5.1-2.4c0-1.7-3.4-9.4-4.1-12.1h-14.4
		c-0.6,2.2-4.1,10.3-4.1,11.9c0,2.3,3.2,2.3,4.9,2.6v1.3H149.2z"/>
	<path class="st0" d="M196.2,46.2v-1.3c3.3,0,5.5-0.3,5.5-3.4V9.3c0-3.1-2.2-3.4-5.5-3.4V4.7h17.1v1.3c-3.4,0-5.6,0.3-5.6,3.4v32.2
		c0,3.1,2.2,3.4,5.6,3.4v1.3H196.2z"/>
	<path class="st0" d="M224,33.6h1.2c0.8,6.4,4,12.1,11.5,12.1c8,0,9.7-5.7,9.7-8.7c0-6.1-5.5-6.8-10-8.5
		c-6.9-2.3-11.1-4.4-11.1-12.3c0-7.3,5.8-12.1,12.9-12.1c3.4,0,7.2,1.1,9.7,3.4l1.8-1.6h0.8v12.3h-1.1c-0.8-3-1.7-7.3-3.8-9.6
		c-1.7-2-3.9-3.3-6.6-3.3c-5.7,0-8.8,3.8-8.8,9.3c0,5.2,4,6.5,8.2,7.8c6.6,2,13.3,4.7,13.3,12.7c0,8.5-6.6,11.8-14.3,11.8
		c-3.7,0-7.2-1.1-10.3-3.1l-2.3,2.2H224V33.6z"/>
	<path class="st0" d="M282.5,5.4c-7.2,0-14.7,6.4-14.7,21c0,10.4,5,19.4,13.9,19.4c10.3,0,15-11,15-19.9
		C296.8,10.9,287.8,5.4,282.5,5.4 M303.3,25.9c0,6.9-4,21.1-21.5,21.1c-16.1,0-20.4-13.5-20.4-20.9c0-18.1,14.7-22,20.7-22
		C292.1,4.1,303.3,10.9,303.3,25.9"/>
	<path class="st0" d="M319,11.2v30.4c0,2,1.5,3.2,5.5,3.4v1.3h-12.4v-1.3c2.9-0.3,5-0.3,5.2-3.4c0,0,0-0.1,0.1-0.2V9.4
		c-1.6-1.7-3.1-3.4-5.2-3.5V4.7h9l29.8,32.6V9.8c0-3.1-1.6-3.5-5.3-3.8V4.7H358v1.3c-4.1,0.7-5.5,1.8-5.5,3.8v36.9h-0.9L319,11.2z"
		/>
	<path class="st0" d="M13.7,101.6c0,3.1,2,3.7,4.9,3.7c6.7,0,10.2-3.4,10.2-10c0-8.8-6-9.7-12.6-9.7h-2.5V101.6z M13.7,84.3h2.8
		c5.4,0,10.1-2.6,10.1-9.3c0-3.7-1.6-7-5.2-8.3c-2.1-0.8-5.4-0.8-7.8-0.8V84.3z M3.2,105c2-0.1,4.4-0.1,4.4-2.6V68.9
		c0-3.1-2-2.5-4.4-2.9v-1.3c4.3-0.1,8.8-0.1,13.3-0.1c4-0.1,7.9,0.1,11.6,1.9c2.9,1.4,4.6,4.7,4.6,7.9c0,4.9-2.8,8.1-7.4,9.4V84
		c5.8,0.7,10.1,5,10.1,10.9c0,4.1-1.6,6.9-5.8,9.3c-3.4,2-8.5,2.3-12.3,2.3c-4.7,0-9.6-0.2-14.1-0.2V105z"/>
	<path class="st0" d="M47.4,106.3V105c3.3,0,5.5-0.3,5.5-3.4V69.4c0-3.1-2.2-3.4-5.5-3.4v-1.3h17.1V66c-3.4,0-5.6,0.3-5.6,3.4v32.2
		c0,3.1,2.2,3.4,5.6,3.4v1.3H47.4z"/>
	<path class="st0" d="M95.8,65.5c-7.2,0-14.7,6.4-14.7,21c0,10.4,5.1,19.4,13.9,19.4c10.3,0,15-11,15-19.9
		C110.1,71,101.1,65.5,95.8,65.5 M116.5,86c0,6.9-4,21.1-21.5,21.1c-16.1,0-20.4-13.5-20.4-20.9c0-18.1,14.7-22,20.7-22
		C105.4,64.2,116.5,71,116.5,86"/>
	<path class="st0" d="M126.6,106.3V105c3.3,0,4.7-0.3,4.7-3.4V69.4c0-3.1-2.2-3.4-4.6-3.4v-1.3h16.4V66c-4.1,0-5.7,1-5.7,4v30.2
		c0,4.6,1.5,4.7,7.3,4.7c2.5,0,5,0,7.5-0.4c3.2-0.5,4.9-2.4,6.7-4.9c1.6-2.2,3-4.4,4.3-6.8h1.3l-3.4,13.4H126.6z"/>
	<path class="st0" d="M195,65.5c-7.2,0-14.7,6.4-14.7,21c0,10.4,5.1,19.4,13.9,19.4c10.3,0,15-11,15-19.9
		C209.3,71,200.3,65.5,195,65.5 M215.7,86c0,6.9-4,21.1-21.5,21.1c-16.1,0-20.4-13.5-20.4-20.9c0-18.1,14.7-22,20.7-22
		C204.6,64.2,215.7,71,215.7,86"/>
	<path class="st0" d="M263.6,77.9h-1.3c-2.4-6.5-6.3-12.4-14-12.4c-6.1,0-16,5.8-16,20.9c0,15.3,8.4,19.4,14.4,19.4
		c6.3,0,10.1-3.5,10.1-9.6v-4.4c0-2.8-0.9-3.4-5.2-3.7v-1.3h15.6v1.3c-3.7,0.3-4.4,1.1-4.4,3.3V102c-5.1,2.9-10.6,5.1-16.6,5.1
		c-9.9,0-20.7-6.3-20.7-20.7c0-15,10.9-22.2,21.3-22.2c4.8,0,9.4,1.1,13.4,3.8l2-2.6h0.9L263.6,77.9z"/>
	<path class="st0" d="M277.1,106.3V105c3.3,0,5.5-0.3,5.5-3.4V69.4c0-3.1-2.2-3.4-5.5-3.4v-1.3h17.1V66c-3.4,0-5.6,0.3-5.6,3.4v32.2
		c0,3.1,2.2,3.4,5.6,3.4v1.3H277.1z"/>
	<path class="st0" d="M325.4,65.5c-7.8,0-14.7,7.1-14.7,21c0,8.3,4,19.4,14,19.4c10.3,0,15-11,15-19.9
		C339.8,70.7,330.7,65.5,325.4,65.5 M342.3,106.8c-0.4,5.4-5.2,9.9-11.1,9.9c-3.4,0-6.2-1.3-8.6-2.5c-2.3-1.3-4.3-2.5-5.8-2.5
		c-1.6,0-1.9,1.1-2,2.3c-0.2,1.1-0.3,2.3-1.5,2.3c-1.3,0-1.9-0.8-1.9-2c0-1.3,1-2.5,2.1-3l9.6-4.1V107c-11.3-0.6-18.7-9.7-18.7-20.7
		c0-16.3,12.7-22,20.7-22c8.8,0,21.2,5.7,21.2,21.8c0,12.3-8.5,20.9-20.7,21.1l-7,2.9l0.1,0.1c1.1-0.2,2.5-0.5,3.7-0.5
		c3.9,0,7.3,1.7,11.1,1.7c3.4,0,6.3-1.3,7.6-4.6H342.3z"/>
	<path class="st0" d="M356.5,64.8h15.7V66c-4.5-0.1-5.3,1.4-5.3,4.6v24.1c0,4.3,1.6,11.1,11.5,11.1c10,0,12.3-6.3,12.3-13.3V70.7
		c0-4.1-2.1-4.4-6.2-4.6v-1.3h13V66c-3.2,0-5.1,1.3-5.1,4.6v21.8c0,8.4-3.2,14.6-15.8,14.6c-12.2,0-15.8-6.5-15.8-13.9V70.7
		c0-4-0.4-4.4-4.3-4.6V64.8z"/>
	<path class="st0" d="M408.4,106.3V105c2.9,0,4.7-0.3,4.7-3.4V69.4c0-3.1-2.2-3.4-4.9-3.4v-1.3h30.7l2.9,9.7l-1.3,0.3
		c-0.8-1.3-1.7-2.6-2.7-3.8c-3.1-4-6.1-4.9-9.6-4.9h-9.1v18.5h3.3c6.1-0.1,8.5-0.8,9.9-7.6h1v17.3h-1c-0.6-6.7-3.2-8.1-9.1-8.1h-4.1
		v15.9c0,2.7,1.9,2.9,4.1,2.9h6.7c2.9,0,4.6-0.5,7-2.9c2.1-2,3.9-4.4,5.5-6.9l1,0.3l-2.4,10.8H408.4z"/>
	<path class="st0" d="M76,136.2c-0.2-0.6-0.5-1.5-1-2.8l-0.9-2.6c-0.5,1.4-1.2,3.2-1.9,5.4H76z M81.1,140.7c0,0.1-0.1,0.2-0.3,0.2
		c-0.1,0-0.2,0-0.3,0l-2.4-0.1l-2.4,0.1c-0.1,0-0.2,0-0.3,0c-0.3,0-0.4-0.1-0.4-0.2c0-0.1,0.2-0.2,0.5-0.2c1.1,0,1.7-0.1,1.7-0.3
		c0,0,0-0.1,0-0.1l-0.2-0.5l-0.1-0.3c-0.1-0.4-0.4-1.3-0.8-2.6h-4c-0.8,2-1.1,3.2-1.1,3.5c0,0.2,0.1,0.3,0.2,0.3c0,0,0.4,0,0.9,0.1
		c0.4,0,0.5,0.1,0.5,0.2c0,0.1-0.2,0.2-0.5,0.2c-0.6,0-1.3,0-2-0.1c-0.2,0-0.4,0-0.6,0c-0.2,0-0.4,0-0.6,0.1c-0.1,0-0.2,0-0.2,0
		c-0.2,0-0.3-0.1-0.3-0.2c0-0.1,0.2-0.2,0.6-0.2c0.4,0,0.7-0.1,0.9-0.2c0.2-0.1,0.3-0.3,0.4-0.6c1.6-4.6,2.9-8.4,3.9-11.2
		c0-0.1,0.1-0.3,0.2-0.5l0.1-0.3c0-0.1,0.1-0.2,0.1-0.2c0,0,0.1,0,0.1,0.1c0.2,0.5,0.5,1.5,1.1,3.1c0.5,1.2,1.6,4.3,3.4,9.2
		c0.1,0.3,0.2,0.5,0.4,0.5c0.2,0.1,0.5,0.1,1,0.1C80.9,140.5,81.1,140.6,81.1,140.7"/>
	<path class="st0" d="M92,140.7c0,0.1-0.1,0.2-0.2,0.2h-0.2c0,0-0.4,0-1,0H90c-0.1,0-0.6,0-1.5,0c-0.1,0-0.2,0-0.2,0
		c-0.2,0-0.3,0-0.3-0.2c0-0.1,0.1-0.1,0.2-0.1h0.5c0.4,0,0.5-0.1,0.5-0.2c0-0.1,0-0.6,0-1.5v-9.6c0-0.4,0-0.6,0-0.7
		c0-0.1-0.1-0.2-0.3-0.2h-0.2h-0.5c-0.2,0-0.3-0.1-0.3-0.2c0-0.1,0.2-0.1,0.5-0.2c0.6,0,1.2-0.2,1.7-0.4l0.4-0.2l0.1-0.1
		c0.1,0.4,0.1,0.9,0.1,1.7v1.3v9.2c0,0.4,0,0.6,0,0.7c0,0.1,0.1,0.1,0.1,0.1c0,0,0.2,0,0.7,0C91.9,140.5,92,140.6,92,140.7"/>
	<path class="st0" d="M102.9,129c0,0.6-0.3,0.8-0.8,0.8c-0.2,0-0.4-0.1-0.6-0.2c-0.2-0.2-0.2-0.3-0.2-0.6c0-0.6,0.3-0.9,0.8-0.9
		C102.6,128.1,102.9,128.4,102.9,129 M104.3,140.7c0,0.1-0.1,0.2-0.3,0.2c0,0-0.1,0-0.5,0c-0.4,0-0.7,0-0.9,0h-2
		c-0.1,0.1-0.1,0.1-0.2,0.1c-0.1,0-0.2,0-0.2-0.1c0-0.1,0.1-0.2,0.4-0.2c0.5,0,0.7,0,0.8-0.1c0-0.1,0.1-0.3,0.1-0.8v-5.7
		c0-0.3,0-0.5,0-0.6c0-0.1-0.1-0.1-0.2-0.1h-0.5h-0.2c-0.1,0-0.2,0-0.2-0.1c0-0.1,0.1-0.1,0.3-0.1c0.8,0,1.5-0.2,2.1-0.6l0.2-0.1
		c0.1,0.2,0.1,0.5,0.1,1v0.2v0.7v5.1c0,0.5,0,0.8,0,0.9c0,0.1,0.1,0.1,0.2,0.2c0.2,0.1,0.5,0.1,0.8,0.1
		C104.2,140.5,104.3,140.6,104.3,140.7"/>
	<path class="st0" d="M125.3,140.7c0,0.1-0.1,0.1-0.3,0.1h-0.4h-1h-2c-0.2,0-0.2,0-0.2-0.1c0-0.1,0.1-0.1,0.2-0.1h0.2h0.5
		c0.2,0,0.3-0.1,0.3-0.1c0-0.1,0-0.3,0-0.8V135c0-0.7-0.1-1.3-0.3-1.6c-0.2-0.3-0.5-0.5-1-0.5c-0.3,0-0.6,0.1-0.9,0.3
		c-0.3,0.2-0.5,0.4-0.6,0.7c0,0.2-0.1,0.9-0.1,2.1v3.6c0,0.4,0,0.7,0,0.7c0,0.2,0.1,0.2,0.3,0.2h0.5c0.2,0,0.2,0,0.2,0.1
		c0,0.1-0.1,0.1-0.3,0.1h-0.1h-1.3h-1h-0.8h-0.2c-0.2,0-0.2-0.1-0.2-0.1c0-0.1,0-0.1,0.1-0.1c0.1,0,0.3,0,0.8,0
		c0.2,0,0.3-0.1,0.3-0.2l0-0.3v-5.2c0-0.7-0.1-1.2-0.3-1.5c-0.2-0.3-0.5-0.4-1-0.4c-0.5,0-0.8,0.1-1.2,0.4c-0.3,0.3-0.5,0.7-0.5,1.1
		v5.3c0,0.4,0,0.6,0.1,0.7c0.1,0.1,0.2,0.1,0.5,0.1h0.1c0.1,0,0.1,0,0.2,0c0.1,0,0.2,0.1,0.2,0.2c0,0.1-0.1,0.1-0.2,0.1H116
		c-0.3,0-0.8,0-1.4,0h-1.9c-0.2,0-0.3-0.1-0.3-0.1c0-0.1,0.1-0.1,0.2-0.1c0.5,0,0.8,0,0.8-0.1c0.1,0,0.1-0.1,0.1-0.2v-4.9
		c0-0.9,0-1.5-0.1-1.7c0-0.2-0.2-0.2-0.5-0.2h-0.3h-0.4c-0.2,0-0.2,0-0.2-0.1c0-0.1,0-0.1,0.1-0.1c0.1,0,0.3,0,0.6-0.1
		c0.3,0,0.7-0.1,1.1-0.2c0.4-0.1,0.7-0.3,0.7-0.4c0.1-0.1,0.2-0.2,0.3-0.2c0.1,0,0.1,0.1,0.1,0.2c0,0.1,0,0.5,0,1.1
		c0.5-0.8,1.3-1.2,2.3-1.2c1.1,0,1.8,0.4,2,1.3c0.5-0.8,1.3-1.3,2.4-1.3c0.9,0,1.6,0.3,1.9,1c0.2,0.4,0.3,0.9,0.3,1.8v4.7
		c0,0.4,0,0.7,0.1,0.7c0,0,0.2,0.1,0.6,0.1h0.3C125.2,140.6,125.3,140.6,125.3,140.7"/>
	<path class="st0" d="M138.8,134.9c-0.1-1.5-0.6-2.3-1.6-2.3c-1,0-1.7,0.8-1.9,2.3H138.8z M140.4,138.8c0,0.1-0.1,0.4-0.3,0.7
		c-0.2,0.3-0.4,0.6-0.6,0.8c-0.5,0.6-1.3,0.8-2.2,0.8c-1.1,0-2.1-0.4-2.8-1.2c-0.8-0.8-1.1-1.8-1.1-3c0-1.3,0.4-2.3,1.1-3.2
		c0.7-0.8,1.6-1.3,2.7-1.3c0.9,0,1.6,0.3,2.2,0.8c0.6,0.5,0.9,1.2,1,2c-0.4,0.1-0.9,0.1-1.6,0.1h-1.3c-0.1,0-0.8,0-2.3,0.1
		c-0.1,0.4-0.1,0.8-0.1,1.2c0,1.3,0.2,2.2,0.7,2.9c0.5,0.7,1.2,1,2,1c0.5,0,0.9-0.1,1.2-0.3c0.3-0.2,0.6-0.7,1-1.3
		c0.1-0.1,0.1-0.2,0.2-0.2C140.4,138.6,140.4,138.7,140.4,138.8"/>
	<path class="st0" d="M157.6,140.7c0,0.1-0.1,0.1-0.3,0.1h-0.2h-0.9H154h-0.1c-0.2,0-0.2,0-0.2-0.1c0-0.1,0-0.1,0.1-0.1
		c0.1,0,0.3,0,0.7,0c0.2,0,0.4,0,0.4-0.1c0-0.1,0.1-0.3,0.1-0.6v-3.6c0-1.4-0.1-2.2-0.1-2.4c-0.2-0.6-0.6-0.8-1.3-0.8
		c-0.6,0-1.2,0.3-1.6,0.8c-0.1,0.2-0.2,0.4-0.2,0.7v5.9c0,0.1,0.1,0.2,0.4,0.2l0.6,0c0.1,0,0.2,0,0.2,0.1c0,0.1-0.1,0.1-0.2,0.1
		h-0.3H151h-0.9h-0.8h-0.1c-0.2,0-0.3,0-0.3-0.1c0-0.1,0.1-0.1,0.3-0.1h0.5c0.2,0,0.3,0,0.3-0.1l0.1-0.3v-4.1c0-1.4,0-2.2,0-2.4
		c0-0.2-0.2-0.2-0.5-0.2h-0.5h-0.1c-0.3,0-0.4,0-0.4-0.1c0-0.1,0.1-0.2,0.4-0.2c0.4,0,0.8-0.1,1.2-0.2c0.4-0.1,0.7-0.3,0.9-0.4
		c0.1-0.1,0.2-0.2,0.3-0.2c0.1,0,0.1,0.1,0.1,0.4v0.9c0.7-0.8,1.5-1.3,2.5-1.3c0.9,0,1.6,0.3,2,1c0.2,0.4,0.3,1.1,0.3,2.1v4.3
		c0,0.4,0,0.6,0.1,0.7c0.1,0.1,0.3,0.1,0.5,0.1h0.2h0.1C157.5,140.6,157.6,140.6,157.6,140.7"/>
	<path class="st0" d="M170.9,139.7c0,0.1-0.2,0.3-0.5,0.6c-0.5,0.5-1.2,0.7-1.9,0.7c-0.7,0-1.2-0.2-1.6-0.5
		c-0.2-0.2-0.3-0.8-0.3-1.8v-5.6c0-0.1-0.1-0.2-0.2-0.2h-0.7c-0.3,0-0.4,0-0.4-0.1c0-0.1,0.1-0.1,0.2-0.1c1-0.1,1.7-0.6,2.3-1.5
		c0.1-0.1,0.2-0.2,0.3-0.2c0.1,0,0.1,0,0.1,0.1v0.1v0.3c0,0.5,0,0.9,0.1,1c0.1,0,0.3,0,0.6,0c0.7,0,1.1,0,1.4-0.1c0.1,0,0.1,0,0.1,0
		c0.1,0,0.1,0.1,0.1,0.2c0,0.2-0.5,0.3-1.5,0.3h-0.8v3.5c0,1.8,0,2.9,0.1,3.3c0.1,0.4,0.4,0.7,0.9,0.7c0.4,0,0.9-0.2,1.4-0.7
		c0-0.1,0.1-0.1,0.2-0.1C170.9,139.6,170.9,139.6,170.9,139.7"/>
	<path class="st0" d="M182.9,138v-1.4c-0.9,0.2-1.6,0.5-2,0.8c-0.4,0.3-0.6,0.8-0.6,1.4c0,0.4,0.1,0.7,0.3,1
		c0.2,0.3,0.5,0.4,0.9,0.4c0.5,0,1-0.3,1.3-0.9C182.8,139.1,182.9,138.7,182.9,138 M186.2,140c0,0.2-0.2,0.4-0.7,0.7
		c-0.4,0.2-0.9,0.3-1.3,0.3c-0.9,0-1.3-0.4-1.4-1.3c-0.5,0.9-1.2,1.4-2.2,1.4c-0.5,0-1-0.2-1.3-0.5c-0.4-0.3-0.5-0.7-0.5-1.2
		c0-1,0.6-1.8,1.8-2.5c0.4-0.2,1.2-0.4,2.2-0.6v-0.5c0-1.1-0.1-1.8-0.2-2.2c-0.2-0.6-0.7-1-1.4-1c-0.4,0-0.8,0.1-1.1,0.4
		c-0.3,0.2-0.4,0.5-0.4,0.9c0,0.1,0.1,0.2,0.2,0.2c0.2,0,0.3,0.1,0.4,0.2c0.1,0.2,0.2,0.3,0.2,0.5c0,0.6-0.3,0.8-0.8,0.8
		c-0.3,0-0.5-0.1-0.7-0.3c-0.2-0.2-0.3-0.4-0.3-0.7c0-0.6,0.2-1.1,0.7-1.5c0.5-0.5,1.2-0.7,2.1-0.7c1.4,0,2.2,0.4,2.5,1.1
		c0.1,0.3,0.2,0.9,0.2,1.7v3.5c0,0.6,0,0.9,0,1c0.1,0.5,0.2,0.7,0.5,0.7c0.3,0,0.6-0.1,0.9-0.4c0.1-0.1,0.2-0.2,0.3-0.2
		C186.2,139.9,186.2,139.9,186.2,140"/>
	<path class="st0" d="M198.8,139.7c0,0.1-0.2,0.3-0.5,0.6c-0.5,0.5-1.2,0.7-1.9,0.7c-0.7,0-1.2-0.2-1.6-0.5
		c-0.2-0.2-0.3-0.8-0.3-1.8v-5.6c0-0.1-0.1-0.2-0.2-0.2h-0.7c-0.3,0-0.4,0-0.4-0.1c0-0.1,0.1-0.1,0.2-0.1c1-0.1,1.7-0.6,2.3-1.5
		c0.1-0.1,0.2-0.2,0.3-0.2c0.1,0,0.1,0,0.1,0.1v0.1v0.3c0,0.5,0,0.9,0.1,1c0.1,0,0.3,0,0.6,0c0.7,0,1.2,0,1.4-0.1c0.1,0,0.1,0,0.1,0
		c0.1,0,0.2,0.1,0.2,0.2c0,0.2-0.5,0.3-1.5,0.3h-0.8v3.5c0,1.8,0,2.9,0.1,3.3c0.1,0.4,0.4,0.7,0.9,0.7c0.4,0,0.9-0.2,1.4-0.7
		c0.1-0.1,0.1-0.1,0.2-0.1C198.8,139.6,198.8,139.6,198.8,139.7"/>
	<path class="st0" d="M209.2,129c0,0.6-0.3,0.8-0.8,0.8c-0.2,0-0.4-0.1-0.6-0.2c-0.2-0.2-0.2-0.3-0.2-0.6c0-0.6,0.3-0.9,0.8-0.9
		C208.9,128.1,209.2,128.4,209.2,129 M210.6,140.7c0,0.1-0.1,0.2-0.3,0.2c0,0-0.1,0-0.5,0c-0.4,0-0.7,0-0.9,0h-2
		c-0.1,0.1-0.1,0.1-0.2,0.1c-0.1,0-0.2,0-0.2-0.1c0-0.1,0.1-0.2,0.4-0.2c0.5,0,0.7,0,0.8-0.1c0-0.1,0.1-0.3,0.1-0.8v-5.7
		c0-0.3,0-0.5,0-0.6c0-0.1-0.1-0.1-0.2-0.1h-0.5h-0.2c-0.1,0-0.2,0-0.2-0.1c0-0.1,0.1-0.1,0.3-0.1c0.8,0,1.5-0.2,2.1-0.6l0.2-0.1
		c0.1,0.2,0.1,0.5,0.1,1v0.2v0.7v5.1c0,0.5,0,0.8,0,0.9c0,0.1,0.1,0.1,0.2,0.2c0.2,0.1,0.5,0.1,0.8,0.1
		C210.5,140.5,210.6,140.6,210.6,140.7"/>
	<path class="st0" d="M225.1,136.7c0-1.4-0.2-2.5-0.6-3.2c-0.3-0.6-0.8-0.8-1.6-0.8c-0.7,0-1.3,0.4-1.6,1.1c-0.4,0.7-0.6,1.7-0.6,3
		c0,1.3,0.2,2.3,0.6,3c0.4,0.7,1,1.1,1.8,1.1c0.6,0,1-0.2,1.3-0.7C224.8,139.3,225.1,138.2,225.1,136.7 M226.8,136.7
		c0,1.2-0.4,2.2-1.1,3.1c-0.7,0.8-1.7,1.2-2.8,1.2c-1.1,0-2.1-0.4-2.9-1.2c-0.8-0.8-1.2-1.8-1.2-3.1c0-1.3,0.4-2.3,1.1-3.1
		c0.7-0.8,1.7-1.2,2.8-1.2c1.1,0,2.1,0.4,2.8,1.3C226.4,134.5,226.8,135.5,226.8,136.7"/>
	<path class="st0" d="M244,140.7c0,0.1-0.1,0.1-0.3,0.1h-0.2h-0.9h-2.2h-0.1c-0.2,0-0.2,0-0.2-0.1c0-0.1,0-0.1,0.1-0.1
		c0.1,0,0.3,0,0.7,0c0.2,0,0.4,0,0.4-0.1c0-0.1,0.1-0.3,0.1-0.6v-3.6c0-1.4,0-2.2-0.2-2.4c-0.2-0.6-0.6-0.8-1.3-0.8
		c-0.6,0-1.2,0.3-1.6,0.8c-0.1,0.2-0.2,0.4-0.2,0.7v5.9c0,0.1,0.1,0.2,0.4,0.2l0.6,0c0.1,0,0.2,0,0.2,0.1c0,0.1-0.1,0.1-0.2,0.1
		h-0.3h-1.3h-0.9h-0.8h-0.1c-0.2,0-0.3,0-0.3-0.1c0-0.1,0.1-0.1,0.3-0.1h0.5c0.2,0,0.3,0,0.3-0.1l0.1-0.3v-4.1c0-1.4,0-2.2,0-2.4
		c0-0.2-0.2-0.2-0.5-0.2h-0.5h-0.1c-0.2,0-0.4,0-0.4-0.1c0-0.1,0.1-0.2,0.4-0.2c0.4,0,0.8-0.1,1.2-0.2c0.4-0.1,0.7-0.3,0.9-0.4
		c0.1-0.1,0.2-0.2,0.3-0.2c0.1,0,0.1,0.1,0.1,0.4v0.9c0.7-0.8,1.5-1.3,2.5-1.3c0.9,0,1.6,0.3,2,1c0.2,0.4,0.3,1.1,0.3,2.1v4.3
		c0,0.4,0,0.6,0.1,0.7c0.1,0.1,0.3,0.1,0.5,0.1h0.2h0.1C244,140.6,244,140.6,244,140.7"/>
	<path class="st0" d="M268.5,135.3c0-1.8-0.5-2.7-1.5-2.7c-1,0-1.5,0.8-1.5,2.5c0,1.9,0.5,2.9,1.6,2.9
		C268,138,268.5,137.1,268.5,135.3 M269.9,142.6c0-1-0.6-1.6-1.8-1.6c-0.4,0-0.9,0.1-1.6,0.2c-0.7,0.1-1.2,0.2-1.5,0.2
		c-0.6,0.3-1,0.9-1,1.8c0,0.6,0.2,1.2,0.7,1.5c0.5,0.4,1.1,0.6,1.8,0.6c1,0,1.8-0.3,2.4-0.8C269.6,144,269.9,143.3,269.9,142.6
		 M272,133.5c0,0.6-0.3,0.9-0.8,0.9c-0.2,0-0.3-0.1-0.5-0.2c-0.2-0.1-0.2-0.3-0.2-0.4c0,0,0-0.1,0.1-0.2c0-0.1,0.1-0.2,0.1-0.3
		c0-0.2-0.1-0.2-0.3-0.2c-0.1,0-0.3,0.1-0.4,0.2c-0.1,0.2-0.2,0.3-0.2,0.5c0,0,0,0.3,0.1,0.6c0.1,0.4,0.1,0.7,0.1,0.9
		c0,0.9-0.3,1.6-0.9,2.1c-0.6,0.6-1.3,0.9-2.2,0.9c-0.2,0-0.6-0.1-1.2-0.3c-0.2-0.1-0.3-0.1-0.3-0.1c-0.3,0-0.5,0.1-0.7,0.3
		c-0.2,0.2-0.3,0.4-0.3,0.7c0,0.7,0.4,1,1.2,1c0.3,0,0.8-0.1,1.4-0.2c0.5-0.1,1-0.1,1.4-0.1c0.8,0,1.4,0.2,1.8,0.6
		c0.4,0.4,0.6,1,0.6,1.7c0,1.1-0.5,2-1.4,2.7c-0.9,0.7-2.1,1.1-3.5,1.1c-1,0-1.9-0.2-2.5-0.6c-0.6-0.4-0.9-1-0.9-1.7
		c0-0.7,0.3-1.3,0.8-1.6c0.3-0.2,0.7-0.3,1.3-0.5c-0.9-0.4-1.3-0.9-1.3-1.6c0-0.9,0.6-1.5,1.7-1.9c-0.8-0.6-1.1-1.4-1.1-2.3
		c0-0.9,0.3-1.6,0.9-2.2c0.6-0.5,1.3-0.8,2.3-0.8c0.5,0,0.9,0.1,1.3,0.2c0.3,0.1,0.7,0.4,1.1,0.8c0.4-0.6,0.9-0.9,1.5-0.9
		C271.6,132.5,272,132.8,272,133.5"/>
	<path class="st0" d="M285.9,128.3l-1.7,1.8c-0.8,0.8-1.2,1.2-1.3,1.2c-0.1,0-0.1,0-0.1-0.1c0,0,0-0.1,0-0.1
		c0.1-0.3,0.3-0.8,0.6-1.5l0.6-1.3h0.6h0.3h0.7H285.9z M285,134.9c-0.1-1.5-0.6-2.3-1.6-2.3c-1,0-1.7,0.8-1.9,2.3H285z M286.6,138.8
		c0,0.1-0.1,0.4-0.3,0.7c-0.2,0.3-0.4,0.6-0.6,0.8c-0.5,0.6-1.3,0.8-2.2,0.8c-1.1,0-2.1-0.4-2.8-1.2c-0.8-0.8-1.1-1.8-1.1-3
		c0-1.3,0.4-2.3,1.1-3.2c0.7-0.8,1.6-1.3,2.7-1.3c0.9,0,1.6,0.3,2.2,0.8c0.6,0.5,0.9,1.2,1,2c-0.4,0.1-0.9,0.1-1.6,0.1h-1.3
		c-0.1,0-0.8,0-2.3,0.1c-0.1,0.4-0.1,0.8-0.1,1.2c0,1.3,0.2,2.2,0.7,2.9c0.5,0.7,1.2,1,2,1c0.5,0,0.9-0.1,1.2-0.3
		c0.3-0.2,0.6-0.7,1-1.3c0.1-0.1,0.1-0.2,0.2-0.2C286.6,138.6,286.6,138.7,286.6,138.8"/>
	<path class="st0" d="M303.8,140.7c0,0.1-0.1,0.1-0.3,0.1h-0.2h-0.9h-2.2h-0.1c-0.2,0-0.2,0-0.2-0.1c0-0.1,0-0.1,0.1-0.1
		c0.1,0,0.3,0,0.7,0c0.2,0,0.4,0,0.4-0.1c0-0.1,0.1-0.3,0.1-0.6v-3.6c0-1.4,0-2.2-0.2-2.4c-0.2-0.6-0.6-0.8-1.3-0.8
		c-0.6,0-1.2,0.3-1.6,0.8c-0.1,0.2-0.2,0.4-0.2,0.7v5.9c0,0.1,0.1,0.2,0.4,0.2l0.6,0c0.1,0,0.2,0,0.2,0.1c0,0.1-0.1,0.1-0.2,0.1
		h-0.3h-1.3h-0.9h-0.8h-0.1c-0.2,0-0.3,0-0.3-0.1c0-0.1,0.1-0.1,0.3-0.1h0.5c0.2,0,0.3,0,0.3-0.1l0.1-0.3v-4.1c0-1.4,0-2.2,0-2.4
		c0-0.2-0.2-0.2-0.5-0.2h-0.5h-0.1c-0.3,0-0.4,0-0.4-0.1c0-0.1,0.1-0.2,0.4-0.2c0.4,0,0.8-0.1,1.2-0.2c0.4-0.1,0.7-0.3,0.9-0.4
		c0.1-0.1,0.2-0.2,0.3-0.2c0.1,0,0.1,0.1,0.1,0.4v0.9c0.7-0.8,1.5-1.3,2.5-1.3c0.9,0,1.6,0.3,2,1c0.2,0.4,0.3,1.1,0.3,2.1v4.3
		c0,0.4,0,0.6,0.1,0.7c0.1,0.1,0.3,0.1,0.5,0.1h0.2h0.1C303.8,140.6,303.8,140.6,303.8,140.7"/>
	<path class="st0" d="M318.3,128.3l-1.7,1.8c-0.8,0.8-1.2,1.2-1.3,1.2c-0.1,0-0.1,0-0.1-0.1c0,0,0-0.1,0-0.1
		c0.1-0.3,0.3-0.8,0.6-1.5l0.6-1.3h0.6h0.3h0.7H318.3z M317.4,134.9c0-1.5-0.6-2.3-1.6-2.3c-1,0-1.7,0.8-1.9,2.3H317.4z
		 M319.1,138.8c0,0.1-0.1,0.4-0.3,0.7c-0.2,0.3-0.4,0.6-0.6,0.8c-0.5,0.6-1.3,0.8-2.2,0.8c-1.1,0-2.1-0.4-2.8-1.2
		c-0.8-0.8-1.1-1.8-1.1-3c0-1.3,0.4-2.3,1.1-3.2c0.7-0.8,1.6-1.3,2.7-1.3c0.9,0,1.6,0.3,2.2,0.8c0.6,0.5,0.9,1.2,1,2
		c-0.4,0.1-0.9,0.1-1.6,0.1h-1.3c-0.1,0-0.8,0-2.3,0.1c-0.1,0.4-0.1,0.8-0.1,1.2c0,1.3,0.2,2.2,0.7,2.9c0.5,0.7,1.2,1,2,1
		c0.5,0,0.9-0.1,1.2-0.3c0.3-0.2,0.6-0.7,1-1.3c0-0.1,0.1-0.2,0.2-0.2C319,138.6,319.1,138.7,319.1,138.8"/>
	<path class="st0" d="M333.4,133.7c0,0.3-0.1,0.5-0.3,0.7c-0.2,0.2-0.4,0.3-0.7,0.3c-0.2,0-0.4-0.1-0.6-0.2
		c-0.1-0.1-0.2-0.3-0.2-0.5c0-0.2,0.1-0.3,0.2-0.5c0.1-0.1,0.2-0.2,0.2-0.3c0-0.2-0.1-0.3-0.4-0.3c-0.4,0-0.7,0.2-0.9,0.7
		c-0.3,0.5-0.4,1.5-0.4,2.9v3.7c0,0.1,0.1,0.2,0.2,0.3c0.1,0,0.4,0.1,1,0.1c0.1,0,0.2,0.1,0.2,0.2c0,0.1-0.1,0.1-0.2,0.1h-0.8h-1.4
		h-0.8h-0.6c-0.2,0-0.3,0-0.3-0.1c0-0.1,0.1-0.1,0.2-0.1h0.3c0.4,0,0.7,0,0.8-0.1c0-0.1,0-0.3,0-0.7v-5.2c0-0.7-0.1-1.1-0.3-1.2
		c-0.2-0.1-0.5-0.2-1-0.2c-0.1,0-0.2,0-0.2-0.1c0-0.1,0.1-0.1,0.2-0.1h0.1c0.2,0,0.4,0,0.6,0c0.2,0,0.3,0,0.2,0c0.5,0,1-0.1,1.5-0.4
		l0.2-0.1l0.2-0.1c0.1,0.3,0.1,0.6,0.1,0.9v0.4c0.4-0.9,1-1.3,1.7-1.3c0.4,0,0.7,0.1,1,0.4C333.3,133,333.4,133.3,333.4,133.7"/>
	<path class="st0" d="M345.8,138v-1.4c-0.9,0.2-1.6,0.5-2,0.8c-0.4,0.3-0.6,0.8-0.6,1.4c0,0.4,0.1,0.7,0.3,1
		c0.2,0.3,0.5,0.4,0.9,0.4c0.5,0,1-0.3,1.3-0.9C345.7,139.1,345.8,138.7,345.8,138 M349.1,140c0,0.2-0.2,0.4-0.7,0.7
		c-0.4,0.2-0.9,0.3-1.3,0.3c-0.9,0-1.3-0.4-1.4-1.3c-0.5,0.9-1.2,1.4-2.2,1.4c-0.5,0-1-0.2-1.3-0.5c-0.3-0.3-0.5-0.7-0.5-1.2
		c0-1,0.6-1.8,1.9-2.5c0.4-0.2,1.2-0.4,2.2-0.6v-0.5c0-1.1-0.1-1.8-0.2-2.2c-0.2-0.6-0.7-1-1.4-1c-0.4,0-0.8,0.1-1.1,0.4
		c-0.3,0.2-0.4,0.5-0.4,0.9c0,0.1,0.1,0.2,0.2,0.2c0.1,0,0.3,0.1,0.4,0.2c0.1,0.2,0.2,0.3,0.2,0.5c0,0.6-0.3,0.8-0.8,0.8
		c-0.3,0-0.5-0.1-0.7-0.3c-0.2-0.2-0.3-0.4-0.3-0.7c0-0.6,0.2-1.1,0.7-1.5c0.5-0.5,1.2-0.7,2.1-0.7c1.4,0,2.2,0.4,2.5,1.1
		c0.1,0.3,0.2,0.9,0.2,1.7v3.5c0,0.6,0,0.9,0,1c0.1,0.5,0.2,0.7,0.5,0.7c0.4,0,0.6-0.1,0.9-0.4c0.1-0.1,0.2-0.2,0.3-0.2
		C349.1,139.9,349.1,139.9,349.1,140"/>
	<path class="st0" d="M360.3,140.7c0,0.1-0.1,0.2-0.2,0.2h-0.2c0,0-0.4,0-1,0h-0.6c-0.1,0-0.6,0-1.5,0c-0.1,0-0.2,0-0.2,0
		c-0.2,0-0.3,0-0.3-0.2c0-0.1,0.1-0.1,0.2-0.1h0.5c0.4,0,0.5-0.1,0.5-0.2c0-0.1,0-0.6,0-1.5v-9.6c0-0.4,0-0.6,0-0.7
		c0-0.1-0.1-0.2-0.3-0.2H357h-0.5c-0.2,0-0.3-0.1-0.3-0.2c0-0.1,0.2-0.1,0.5-0.2c0.6,0,1.2-0.2,1.7-0.4l0.4-0.2l0.2-0.1
		c0.1,0.4,0.1,0.9,0.1,1.7v1.3v9.2c0,0.4,0,0.6,0,0.7c0,0.1,0.1,0.1,0.1,0.1c0,0,0.2,0,0.7,0C360.1,140.5,360.3,140.6,360.3,140.7"
		/>
	<path class="st0" d="M374,134.9c0-1.5-0.6-2.3-1.6-2.3c-1,0-1.7,0.8-1.9,2.3H374z M375.6,138.8c0,0.1-0.1,0.4-0.3,0.7
		c-0.2,0.3-0.4,0.6-0.6,0.8c-0.5,0.6-1.3,0.8-2.2,0.8c-1.1,0-2.1-0.4-2.8-1.2c-0.8-0.8-1.1-1.8-1.1-3c0-1.3,0.4-2.3,1.1-3.2
		c0.7-0.8,1.6-1.3,2.7-1.3c0.9,0,1.6,0.3,2.2,0.8c0.6,0.5,0.9,1.2,1,2c-0.4,0.1-0.9,0.1-1.6,0.1h-1.3c-0.1,0-0.8,0-2.3,0.1
		c-0.1,0.4-0.1,0.8-0.1,1.2c0,1.3,0.2,2.2,0.7,2.9c0.5,0.7,1.2,1,2,1c0.5,0,0.9-0.1,1.2-0.3c0.3-0.2,0.6-0.7,1-1.3
		c0-0.1,0.1-0.2,0.2-0.2C375.6,138.6,375.6,138.7,375.6,138.8"/>
	<path class="st0" d="M30.2,26.7c0-1.6-0.3-2.8-1-3.6c-0.6-0.8-1.6-1.1-3-1.1c-0.7,0-1.1,0.1-1.2,0.2C25,22.2,25,22.5,25,22.9v7.8
		c0,0.3,0,0.4,0,0.5c0,0.1,0.1,0.1,0.1,0.1c0.2,0.1,0.7,0.2,1.5,0.2c1.1,0,1.9-0.4,2.6-1.1C29.8,29.6,30.2,28.4,30.2,26.7
		 M31.8,26.7c0,1.7-0.6,3.1-1.8,4c-0.9,0.7-2.1,1.1-3.5,1.1H26h-1.3h-0.7h-1.2h-0.2c-0.2,0-0.3,0-0.3-0.1c0-0.1,0.2-0.1,0.5-0.1
		c0.4,0,0.6-0.1,0.7-0.2c0-0.1,0.1-0.3,0.1-0.6v-7.9c0-0.5,0-0.8-0.1-0.8c-0.1-0.1-0.3-0.1-0.8-0.1c-0.2,0-0.3-0.1-0.3-0.2
		c0-0.1,0.1-0.1,0.3-0.1h0.3h0.7h1.6c1.8,0,3,0.1,3.7,0.4c0.9,0.3,1.6,0.9,2.2,1.7C31.5,24.6,31.8,25.6,31.8,26.7"/>
	<path class="st0" d="M40,27.2c0-1.2-0.5-1.8-1.3-1.8c-0.8,0-1.3,0.6-1.5,1.8H40z M41.3,30.2c0,0.1-0.1,0.3-0.2,0.5
		c-0.1,0.2-0.3,0.5-0.5,0.6c-0.4,0.4-1,0.6-1.7,0.6c-0.9,0-1.6-0.3-2.2-1c-0.6-0.6-0.9-1.4-0.9-2.4c0-1,0.3-1.8,0.8-2.5
		c0.6-0.7,1.3-1,2.1-1c0.7,0,1.3,0.2,1.7,0.6c0.5,0.4,0.7,0.9,0.8,1.6c-0.3,0-0.7,0.1-1.2,0.1h-1c-0.1,0-0.7,0-1.8,0
		c-0.1,0.3-0.1,0.6-0.1,0.9c0,1,0.2,1.7,0.6,2.3c0.4,0.5,0.9,0.8,1.6,0.8c0.4,0,0.7-0.1,0.9-0.3c0.2-0.2,0.5-0.5,0.8-1
		c0-0.1,0.1-0.1,0.2-0.1C41.3,30.1,41.3,30.2,41.3,30.2"/>
	<path class="st0" d="M50.1,28.6c0-0.8-0.1-1.4-0.4-2c-0.3-0.7-0.8-1.1-1.5-1.1c-0.3,0-0.6,0.1-0.9,0.4c-0.2,0.2-0.4,0.5-0.4,0.9
		c0,0.4,0,1.3,0,2.7c0,0.7,0,1.1,0,1.3c0,0.1,0.1,0.3,0.2,0.4c0.3,0.4,0.7,0.6,1.1,0.6c0.5,0,0.9-0.2,1.2-0.6
		C49.9,30.5,50.1,29.6,50.1,28.6 M51.4,28.6c0,1-0.3,1.8-0.8,2.5c-0.6,0.7-1.2,1-2.1,1c-0.6,0-1.2-0.2-1.5-0.7v3.4
		c0,0.2,0,0.3,0,0.4c0,0,0.1,0.1,0.1,0.1c0.1,0,0.4,0,0.9,0c0.1,0,0.2,0,0.2,0.1c0,0.1-0.1,0.1-0.2,0.1h-0.3h-0.3H47h-0.5h-0.6h-0.8
		c-0.3,0-0.4,0-0.4-0.1c0-0.1,0.1-0.1,0.2-0.1h0.4c0.3,0,0.4-0.1,0.5-0.2c0-0.1,0-0.5,0-1.3v-7.3c0-0.3-0.1-0.4-0.4-0.4h-0.6
		c-0.1,0-0.1,0-0.1-0.1c0-0.1,0.1-0.1,0.3-0.1c0.5,0,1-0.1,1.5-0.4c0.1-0.1,0.2-0.1,0.3-0.1c0.1,0,0.1,0,0.2,0.1
		c0,0.1,0,0.3,0.1,0.7c0.4-0.5,0.9-0.8,1.6-0.8c0.9,0,1.5,0.3,2.1,0.9C51.1,26.8,51.4,27.6,51.4,28.6"/>
	<path class="st0" d="M62.1,31.3c0,0.1-0.1,0.1-0.3,0.1c-0.8,0-1.4,0.2-2,0.5c0,0-0.1,0-0.1,0c-0.1,0-0.1,0-0.1-0.1V31
		c-0.4,0.6-1.1,0.9-1.9,0.9c-0.7,0-1.2-0.2-1.5-0.6c-0.1-0.2-0.2-0.3-0.2-0.5c0-0.1,0-0.5,0-1.2v-3.3c0-0.3,0-0.5-0.1-0.6
		c0-0.1-0.2-0.1-0.4-0.1h-0.2c-0.3,0-0.4,0-0.4-0.1c0-0.1,0.1-0.1,0.2-0.1c0.2,0,0.4,0,0.8,0c0.2,0,0.3,0,0.3,0c0.3,0,0.7,0,1-0.1
		v4.1c0,0.7,0,1.2,0.1,1.5c0.2,0.4,0.5,0.6,1,0.6c0.5,0,0.9-0.2,1.1-0.6c0.2-0.3,0.3-0.8,0.3-1.5v-2.3c0-0.3,0-0.6,0-0.7v-0.5
		c0-0.1,0-0.2-0.1-0.3c-0.1,0-0.2,0-0.3,0c-0.4,0-0.6,0-0.6-0.1c0-0.1,0.1-0.1,0.3-0.1h0.1h0.8h1.1v4.1c0,0.7,0,1.2,0,1.3
		c0,0.2,0.1,0.3,0.2,0.3c0.1,0,0.4,0,0.8,0C62,31.2,62.1,31.3,62.1,31.3"/>
	<path class="st0" d="M67.3,22.6c0,0.4-0.2,0.7-0.7,0.7c-0.2,0-0.3-0.1-0.5-0.2C66.1,23,66,22.8,66,22.6c0-0.5,0.2-0.7,0.7-0.7
		C67.1,21.9,67.3,22.2,67.3,22.6 M68.4,31.8c0,0.1-0.1,0.1-0.2,0.1c0,0-0.1,0-0.4,0c-0.3,0-0.5,0-0.7,0h-1.5c-0.1,0-0.1,0.1-0.2,0.1
		c-0.1,0-0.2,0-0.2-0.1c0-0.1,0.1-0.2,0.3-0.2c0.4,0,0.6,0,0.6-0.1c0,0,0.1-0.2,0.1-0.6v-4.5c0-0.2,0-0.4,0-0.4c0,0-0.1-0.1-0.2-0.1
		h-0.4h-0.1c-0.1,0-0.2,0-0.2-0.1c0-0.1,0.1-0.1,0.2-0.1c0.6,0,1.2-0.2,1.7-0.5l0.1-0.1c0.1,0.1,0.1,0.4,0.1,0.8v0.1v0.6v4
		c0,0.4,0,0.6,0,0.7c0,0.1,0.1,0.1,0.2,0.1c0.1,0,0.4,0.1,0.6,0.1C68.4,31.6,68.4,31.7,68.4,31.8"/>
	<path class="st0" d="M76.4,30c0,0.6-0.2,1.1-0.6,1.5c-0.4,0.4-0.9,0.6-1.5,0.6c-0.3,0-0.7-0.1-1.2-0.4c-0.1-0.1-0.2-0.1-0.3-0.1
		c-0.1,0-0.2,0.1-0.3,0.3c0,0.1-0.1,0.2-0.2,0.2c-0.1,0-0.1,0-0.1-0.1v-0.2v-0.9v-0.4v-0.4v-0.2c0-0.1,0-0.2,0.1-0.2
		c0.1,0,0.1,0.1,0.1,0.2c0.1,0.5,0.2,0.8,0.4,1.1c0.4,0.5,0.9,0.8,1.6,0.8c0.4,0,0.6-0.1,0.8-0.3c0.2-0.2,0.3-0.5,0.3-0.8
		c0-0.4-0.1-0.7-0.4-0.9c-0.1-0.1-0.3-0.2-0.4-0.3c-0.1-0.1-0.4-0.2-1-0.4c-1.1-0.4-1.6-1-1.6-1.9c0-0.5,0.2-1,0.6-1.4
		c0.4-0.4,0.8-0.6,1.4-0.6c0.2,0,0.5,0.1,0.9,0.2c0.1,0,0.2,0,0.3,0c0.2,0,0.3-0.1,0.4-0.3c0-0.1,0.1-0.1,0.1-0.1
		c0.1,0,0.1,0,0.1,0.1v0.1v0.6c0,0.2,0,0.6,0.1,1.1v0c0,0.1,0,0.1-0.1,0.1c-0.1,0-0.1-0.1-0.2-0.4c-0.1-0.4-0.3-0.6-0.6-0.9
		c-0.3-0.2-0.6-0.3-0.9-0.3c-0.3,0-0.6,0.1-0.8,0.3C73.1,26,73,26.3,73,26.6c0,0.5,0.3,0.9,1,1.1c1,0.4,1.7,0.7,1.9,1
		C76.3,29.1,76.4,29.5,76.4,30"/>
	<path class="st0" d="M383.3,29.1c0,0,0,0.1,0,0.2c-0.1,0.3-0.1,1.1-0.2,2.4l0,0.2c-1,0-2.2-0.1-3.4-0.1c-0.7,0-1.3,0-2,0
		c-0.6,0-0.9,0-0.8,0c-0.3,0-0.4,0-0.4-0.1c0-0.1,0.3-0.3,0.8-0.7c1.2-1,2.1-1.8,2.6-2.4c0.9-1.1,1.3-2.4,1.3-3.8
		c0-1-0.2-1.7-0.6-2.2c-0.3-0.4-0.8-0.6-1.3-0.6c-0.6,0-1,0.2-1.3,0.5c-0.3,0.3-0.4,0.5-0.4,0.8c0,0.2,0.1,0.3,0.4,0.3
		c0.7,0,1,0.3,1,0.9c0,0.5-0.3,0.8-0.9,0.8c-0.4,0-0.7-0.1-0.9-0.3c-0.2-0.2-0.3-0.5-0.3-0.9c0-0.7,0.3-1.3,0.8-1.7
		c0.5-0.4,1.2-0.7,2-0.7c0.8,0,1.5,0.3,2.1,0.8c0.6,0.6,1,1.4,1,2.4c0,1.1-0.4,2.1-1.1,3c-0.7,0.9-1.9,1.9-3.7,3c0.6,0,1.5,0,2.4,0
		c0.8,0,1.3,0,1.5,0c0.2,0,0.4-0.1,0.6-0.2c0.1-0.1,0.3-0.4,0.4-1c0.1-0.4,0.2-0.6,0.3-0.6C383.3,28.9,383.3,28.9,383.3,29.1"/>
	<path class="st0" d="M392.6,26.4c0-1.5-0.2-2.7-0.5-3.6c-0.2-0.7-0.7-1.1-1.3-1.1c-1.2,0-1.8,1.6-1.8,4.9c0,3.4,0.7,5.2,2,5.2
		c0.6,0,1-0.5,1.3-1.5C392.5,29.4,392.6,28.1,392.6,26.4 M394.2,26.9c0,0.9-0.1,1.7-0.4,2.5c-0.3,0.8-0.6,1.4-1.1,1.9
		c-0.5,0.5-1.1,0.8-1.8,0.8c-1,0-1.9-0.5-2.5-1.5c-0.7-1-1-2.3-1-3.8c0-1.8,0.5-3.2,1.4-4.3c0.6-0.6,1.2-0.9,2.1-0.9
		c1,0,1.7,0.4,2.3,1.3C393.8,23.9,394.2,25.2,394.2,26.9"/>
	<path class="st0" d="M403.8,31.7c0,0.1-0.1,0.1-0.3,0.1h-0.2h-0.6h-1.1h-1.3h-0.4c-0.2,0-0.4,0-0.4-0.1c0-0.1,0.1-0.1,0.2-0.1
		c0.2,0,0.4,0,0.7,0c0.3,0,0.5-0.1,0.5-0.2c0-0.1,0-0.4,0-0.9v-6.9c0-0.3,0-0.5,0-0.6c0-0.1-0.1-0.1-0.2-0.1c-0.1,0-0.4,0-1,0.1
		c-0.1,0-0.2,0-0.2,0c-0.1,0-0.2,0-0.2-0.1c0-0.1,0.1-0.1,0.2-0.1c0.5,0,0.9-0.2,1.4-0.4c0.5-0.2,0.8-0.5,1.1-0.8
		c0.1-0.1,0.2-0.1,0.2-0.1c0.1,0,0.1,0,0.1,0.1v0.3v0.3v8.8c0,0.4,0,0.6,0.1,0.6c0,0.1,0.2,0.1,0.4,0.1h0.3h0.2h0.2
		C403.8,31.6,403.8,31.6,403.8,31.7"/>
	<path class="st0" d="M414,28.6c0-1.8-0.6-2.7-1.7-2.7c-0.5,0-0.9,0.2-1.2,0.7c-0.3,0.4-0.4,1-0.4,1.8c0,1.1,0.2,2,0.6,2.7
		c0.3,0.4,0.6,0.7,1.1,0.7C413.5,31.8,414,30.7,414,28.6 M415.5,28.6c0,0.9-0.3,1.8-0.9,2.4c-0.6,0.7-1.3,1-2.1,1
		c-1,0-1.8-0.4-2.5-1.2c-0.6-0.8-0.9-1.9-0.9-3.2c0-1.2,0.3-2.3,0.8-3.3c0.5-1,1.2-1.7,2.1-2.2c0.7-0.4,1.6-0.6,2.4-0.6
		c0.2,0,0.3,0,0.3,0.1c0,0.1-0.1,0.1-0.2,0.1c-0.9,0.1-1.7,0.4-2.3,1c-0.9,0.7-1.4,2-1.6,3.7c0.5-0.5,1.2-0.8,1.8-0.8
		c0.5,0,1.1,0.1,1.5,0.4C415.1,26.5,415.5,27.4,415.5,28.6"/>
</g>
</svg>
